<svg width="26" height="26" viewBox="0 0 26 26" fill="none" xmlns="http://www.w3.org/2000/svg">
<g id="icon_&#236;&#178;&#168;&#235;&#182;&#128;&#237;&#140;&#140;&#236;&#157;&#188;">
<rect id="Rectangle 3" width="26" height="26" rx="8" fill="#FF5ADB"/>
<path id="Vector" d="M11.8571 9.81818C11.5417 9.81818 11.2857 10.1033 11.2857 10.4545V15.5455C11.2857 16.598 12.0549 17.4545 13 17.4545C13.9451 17.4545 14.7143 16.598 14.7143 15.5455V9.18182C14.7143 7.42736 13.4326 6 11.8571 6C10.2817 6 9 7.42736 9 9.18182V15.5455C9 16.7609 9.43143 17.8962 10.2143 18.7425C10.9674 19.5565 11.952 20 12.9983 20C13.0394 20 13.0811 19.9994 13.1223 19.9981C15.2606 19.9268 17 17.8574 17 15.3857V7.90909C17 7.55782 16.7446 7.27273 16.4286 7.27273C16.1126 7.27273 15.8571 7.55782 15.8571 7.90909V15.3857C15.8571 17.1765 14.6149 18.6751 13.0886 18.726C12.3034 18.7495 11.5697 18.4339 11.0103 17.8294C10.4509 17.2242 10.1429 16.4135 10.1429 15.5455V9.18182C10.1429 8.12927 10.912 7.27273 11.8571 7.27273C12.8023 7.27273 13.5714 8.12927 13.5714 9.18182V15.5455C13.5714 15.8961 13.3149 16.1818 13 16.1818C12.6851 16.1818 12.4286 15.8961 12.4286 15.5455V10.4545C12.4286 10.1033 12.1726 9.81818 11.8571 9.81818Z" fill="white"/>
</g>
</svg>
