<svg width="12" height="16" viewBox="0 0 12 16" fill="none" xmlns="http://www.w3.org/2000/svg">
<path d="M6.04536 15.4481C7.19386 15.4491 8.31431 15.0933 9.25168 14.4296C10.1891 13.766 10.897 12.8275 11.2776 11.7439C11.6583 10.6603 11.6927 9.48519 11.3762 8.38115C11.0597 7.27712 10.4079 6.29874 9.511 5.58137V3.66487C9.511 2.74572 9.14587 1.86422 8.49594 1.21428C7.846 0.564348 6.9645 0.199219 6.04536 0.199219C5.12621 0.199219 4.24471 0.564348 3.59477 1.21428C2.94484 1.86422 2.57971 2.74572 2.57971 3.66487V5.58137C1.6828 6.29874 1.03102 7.27712 0.714517 8.38115C0.39802 9.48519 0.432459 10.6603 0.813071 11.7439C1.19368 12.8275 1.90165 13.766 2.83903 14.4296C3.77641 15.0933 4.89685 15.4491 6.04536 15.4481ZM3.96597 3.66487C3.96597 3.11338 4.18505 2.58448 4.57501 2.19452C4.96497 1.80456 5.49387 1.58548 6.04536 1.58548C6.59684 1.58548 7.12575 1.80456 7.51571 2.19452C7.90567 2.58448 8.12474 3.11338 8.12474 3.66487V4.76625C6.79192 4.22194 5.2988 4.22194 3.96597 4.76625V3.66487ZM6.04536 5.74425C6.86788 5.74425 7.67194 5.98816 8.35585 6.44514C9.03976 6.90211 9.5728 7.55162 9.88757 8.31154C10.2023 9.07145 10.2847 9.90764 10.1242 10.7144C9.96376 11.5211 9.56767 12.2621 8.98606 12.8437C8.40444 13.4253 7.66342 13.8214 6.85669 13.9819C6.04997 14.1424 5.21378 14.06 4.45386 13.7452C3.69394 13.4305 3.04443 12.8974 2.58746 12.2135C2.13049 11.5296 1.88658 10.7256 1.88658 9.90303C1.88768 8.80039 2.32619 7.74323 3.10587 6.96355C3.88556 6.18386 4.94272 5.74536 6.04536 5.74425Z" fill="white"/>
<path d="M5.35329 10.4032V11.9815C5.35329 12.1653 5.42631 12.3416 5.5563 12.4716C5.68629 12.6016 5.86259 12.6746 6.04642 12.6746C6.23025 12.6746 6.40655 12.6016 6.53653 12.4716C6.66652 12.3416 6.73955 12.1653 6.73955 11.9815V10.4032C7.00382 10.2506 7.21037 10.0151 7.32715 9.73316C7.44393 9.45123 7.46442 9.13864 7.38544 8.84387C7.30646 8.54911 7.13242 8.28864 6.89032 8.10287C6.64821 7.9171 6.35158 7.81641 6.04642 7.81641C5.74125 7.81641 5.44462 7.9171 5.20251 8.10287C4.96041 8.28864 4.78637 8.54911 4.70739 8.84387C4.62841 9.13864 4.6489 9.45123 4.76568 9.73316C4.88246 10.0151 5.08901 10.2506 5.35329 10.4032Z" fill="white"/>
</svg>
