<svg width="13" height="16" viewBox="0 0 13 16" fill="none" xmlns="http://www.w3.org/2000/svg">
<g id="icon_&#235;&#185;&#132;&#235;&#176;&#128;&#234;&#184;&#128; ">
<g id="&#236;&#149;&#132;&#236;&#157;&#180;&#236;&#189;&#152;">
<path id="Vector" d="M6.58804 16C7.79312 16.0011 8.96876 15.6277 9.95231 14.9314C10.9359 14.2351 11.6787 13.2503 12.0781 12.1133C12.4774 10.9764 12.5136 9.74338 12.1815 8.58496C11.8494 7.42655 11.1655 6.39997 10.2244 5.64727V3.63636C10.2244 2.67194 9.84129 1.74701 9.15934 1.06507C8.47739 0.383115 7.55247 0 6.58804 0C5.62362 0 4.6987 0.383115 4.01675 1.06507C3.3348 1.74701 2.95168 2.67194 2.95168 3.63636V5.64727C2.0106 6.39997 1.3267 7.42655 0.994615 8.58496C0.662528 9.74338 0.698663 10.9764 1.09802 12.1133C1.49738 13.2503 2.24023 14.2351 3.22378 14.9314C4.20733 15.6277 5.38297 16.0011 6.58804 16ZM4.40623 3.63636C4.40623 3.05771 4.6361 2.50275 5.04527 2.09358C5.45444 1.68441 6.00939 1.45454 6.58804 1.45454C7.1667 1.45454 7.72165 1.68441 8.13082 2.09358C8.53999 2.50275 8.76986 3.05771 8.76986 3.63636V4.79199C7.37138 4.22088 5.80471 4.22088 4.40623 4.79199V3.63636ZM6.58804 5.81818C7.45109 5.81818 8.29475 6.0741 9.01235 6.55358C9.72994 7.03306 10.2892 7.71457 10.6195 8.51192C10.9498 9.30927 11.0362 10.1866 10.8678 11.0331C10.6995 11.8796 10.2839 12.6571 9.6736 13.2674C9.06333 13.8776 8.28581 14.2932 7.43934 14.4616C6.59288 14.63 5.7155 14.5435 4.91815 14.2133C4.1208 13.883 3.4393 13.3237 2.95982 12.6061C2.48033 11.8885 2.22441 11.0449 2.22441 10.1818C2.22557 9.02485 2.68568 7.91562 3.50377 7.09753C4.32185 6.27944 5.43109 5.81933 6.58804 5.81818Z" fill="#01C880"/>
<path id="Vector_2" d="M5.86008 10.7084V12.3644C5.86008 12.5572 5.93671 12.7422 6.0731 12.8786C6.20949 13.015 6.39447 13.0916 6.58736 13.0916C6.78024 13.0916 6.96523 13.015 7.10162 12.8786C7.23801 12.7422 7.31463 12.5572 7.31463 12.3644V10.7084C7.59193 10.5483 7.80865 10.3011 7.93118 10.0053C8.05371 9.70949 8.07521 9.38151 7.99234 9.07222C7.90947 8.76294 7.72686 8.48964 7.47283 8.29472C7.2188 8.09979 6.90755 7.99414 6.58736 7.99414C6.26716 7.99414 5.95591 8.09979 5.70189 8.29472C5.44786 8.48964 5.26525 8.76294 5.18238 9.07222C5.0995 9.38151 5.121 9.70949 5.24353 10.0053C5.36607 10.3011 5.58279 10.5483 5.86008 10.7084Z" fill="#01C880"/>
</g>
</g>
</svg>
