<svg width="10" height="16" viewBox="0 0 10 16" fill="none" xmlns="http://www.w3.org/2000/svg">
<g id="icon_&#236;&#178;&#168;&#235;&#182;&#128;&#237;&#140;&#140;&#236;&#157;&#188;">
<path id="Vector" d="M3.48886 4.36744C3.10369 4.36744 2.79109 4.69296 2.79109 5.09405V10.9069C2.79109 12.1087 3.73029 13.0867 4.8844 13.0867C6.03851 13.0867 6.97771 12.1087 6.97771 10.9069V3.64084C6.97771 1.63759 5.41261 0.0078125 3.48886 0.0078125C1.5651 0.0078125 0 1.63759 0 3.64084V10.9069C0 12.2947 0.526817 13.591 1.48276 14.5573C2.40243 15.4867 3.60469 15.9931 4.88231 15.9931C4.93255 15.9931 4.98348 15.9924 5.03372 15.9909C7.64478 15.9096 9.7688 13.5466 9.7688 10.7245V2.18763C9.7688 1.78654 9.4569 1.46102 9.07103 1.46102C8.68516 1.46102 8.37326 1.78654 8.37326 2.18763V10.7245C8.37326 12.7692 6.8563 14.4803 4.99255 14.5385C4.03382 14.5653 3.13788 14.2049 2.45476 13.5147C1.77164 12.8237 1.39554 11.898 1.39554 10.9069V3.64084C1.39554 2.43903 2.33474 1.46102 3.48886 1.46102C4.64297 1.46102 5.58217 2.43903 5.58217 3.64084V10.9069C5.58217 11.3072 5.26887 11.6335 4.8844 11.6335C4.49993 11.6335 4.18663 11.3072 4.18663 10.9069V5.09405C4.18663 4.69296 3.87403 4.36744 3.48886 4.36744Z" fill="#FF5ADB"/>
</g>
</svg>
